Coordinates
version=1
nRows=29
nColumns=24
inDegrees=yes

Units are S.I. units (second, meters, Newtons, ...)
Angles are in degrees.

endheader
time	pelvis_tilt	pelvis_list	pelvis_rotation	pelvis_tx	pelvis_ty	pelvis_tz	hip_flexion_r	hip_adduction_r	hip_rotation_r	knee_angle_r	ankle_angle_r	subtalar_angle_r	mtp_angle_r	hip_flexion_l	hip_adduction_l	hip_rotation_l	knee_angle_l	ankle_angle_l	subtalar_angle_l	mtp_angle_l	lumbar_extension	lumbar_bending	lumbar_rotation
      0.78766667	      0.92973767	     -5.52556071	      2.29075877	     -0.35575572	      1.01224253	      0.31065680	      8.26694619	     11.50174386	     -1.43634916	    -11.82203206	     -1.48236868	    -20.09727150	      1.10217884	     18.27917088	     -6.35966795	      2.18047653	    -67.37520676	     -6.88445424	     -9.66009590	      5.98274487	     -4.26965726	      9.01144846	      0.68982675
      0.79183333	      0.92513662	     -5.44311194	      2.14892103	     -0.35067416	      1.01287815	      0.31097969	      7.77454269	     11.45150831	     -1.28082010	    -11.54713488	     -1.33471762	    -19.97564671	      1.10936657	     18.83250617	     -6.27056970	      2.15093032	    -67.07178945	     -6.34100975	     -9.90618546	      5.94488865	     -4.32269344	      8.92795139	      0.73944078
      0.79600000	      0.95572698	     -5.35072321	      1.98678443	     -0.34558793	      1.01354752	      0.31132591	      7.24446414	     11.38903237	     -1.12287525	    -11.28054096	     -1.18072478	    -19.79406572	      1.11555429	     19.31901809	     -6.18525684	      2.08511166	    -66.70258158	     -5.78545261	    -10.12003746	      5.88974704	     -4.44004899	      8.82044653	      0.88819628
      0.80016667	      0.99187700	     -5.26904107	      1.82963509	     -0.34050228	      1.01418739	      0.31166768	      6.70283816	     11.33322654	     -0.98293963	    -10.99878550	     -1.01732956	    -19.57330458	      1.11933337	     19.78648201	     -6.11510157	      2.01960549	    -66.28177035	     -5.24495137	    -10.29027036	      5.82098803	     -4.56128044	      8.70227587	      1.09347058
      0.80433333	      1.03711940	     -5.16456911	      1.67204154	     -0.33540420	      1.01483725	      0.31197005	      6.14783310	     11.24393562	     -0.86070862	    -10.71451696	     -0.82944685	    -19.28463556	      1.11752435	     20.21329751	     -6.01149145	      1.95761393	    -65.78275969	     -4.74895283	    -10.41306495	      5.70404825	     -4.68699630	      8.59110284	      1.38083156
      0.80850000	      1.03899598	     -5.07536376	      1.49104143	     -0.33033264	      1.01536121	      0.31230453	      5.65280198	     11.16906849	     -0.72794732	    -10.45400983	     -0.65403322	    -19.01719338	      1.11126898	     20.67713239	     -5.93356375	      1.87294905	    -65.25132316	     -4.23087361	    -10.53379901	      5.58210205	     -4.77079589	      8.48675041	      1.58794724
      0.81266667	      1.04194326	     -4.99135019	      1.29546271	     -0.32524820	      1.01587926	      0.31264082	      5.15370145	     11.09787680	     -0.58015691	    -10.19030645	     -0.50957274	    -18.81712629	      1.10728139	     21.11366403	     -5.86876582	      1.76564510	    -64.65732084	     -3.72134525	    -10.66041835	      5.51667199	     -4.84245810	      8.40158628	      1.71072914
      0.81683333	      1.06102913	     -4.91410912	      1.10277931	     -0.32017345	      1.01636490	      0.31297759	      4.63053923	     11.03076523	     -0.42673410	     -9.91061230	     -0.34585468	    -18.57323529	      1.10134644	     21.51943606	     -5.81543186	      1.65896651	    -64.01861517	     -3.23635898	    -10.72801063	      5.44729971	     -4.94429570	      8.31336323	      1.89416116
      0.82100000	      1.07613796	     -4.84381228	      0.93194886	     -0.31510019	      1.01679521	      0.31328402	      4.11252382	     10.96295987	     -0.32458269	     -9.62446797	     -0.15888407	    -18.25182408	      1.08285291	     21.92046416	     -5.76226218	      1.57579892	    -63.33563387	     -2.79545526	    -10.74628958	      5.32086254	     -5.04540359	      8.21722336	      2.17872828
      0.82516667	      1.05854339	     -4.77200897	      0.72013435	     -0.31003528	      1.01716218	      0.31361552	      3.63867643	     10.89353038	     -0.16142085	     -9.36201415	     -0.01520308	    -18.02485872	      1.07275157	     22.32634356	     -5.71777996	      1.45127510	    -62.59452114	     -2.35952094	    -10.80562196	      5.24971856	     -5.10025679	      8.14907763	      2.30107078
      0.82933333	      1.08090361	     -4.70082508	      0.52201319	     -0.30496311	      1.01755475	      0.31393165	      3.11152697	     10.81934052	     -0.01846597	     -9.07378053	      0.14093049	    -17.75972633	      1.06052399	     22.66926463	     -5.67457542	      1.33199835	    -61.79768914	     -1.95713616	    -10.81897086	      5.17278075	     -5.20510042	      8.06937695	      2.48203001
      0.83350000	      1.11395395	     -4.64483878	      0.33267871	     -0.29989235	      1.01790743	      0.31423141	      2.57201127	     10.75791462	      0.11070820	     -8.77941181	      0.29536315	    -17.47851360	      1.04529497	     22.98785079	     -5.64754267	      1.21873678	    -60.96109020	     -1.58341067	    -10.81050221	      5.08635725	     -5.32297956	      8.00511533	      2.67764602
      0.83766667	      1.12630331	     -4.59816901	      0.16186258	     -0.29480804	      1.01818422	      0.31448584	      2.05690189	     10.69905379	      0.20712890	     -8.48449133	      0.45936561	    -17.15996610	      1.01720459	     23.31595397	     -5.61743073	      1.13249306	    -60.08287180	     -1.25186645	    -10.78439429	      4.95047531	     -5.41384703	      7.94680445	      2.92163963
      0.84183333	      1.13771509	     -4.54535701	     -0.02683781	     -0.28973212	      1.01841619	      0.31475491	      1.54722563	     10.63126981	      0.32688793	     -8.19890858	      0.61151954	    -16.87091852	      0.98905466	     23.62011361	     -5.58974384	      1.01839003	    -59.15390201	     -0.93984503	    -10.76728646	      4.81163641	     -5.50343770	      7.88931620	      3.09329173
      0.84600000	      1.12989804	     -4.49507752	     -0.23407888	     -0.28466320	      1.01861506	      0.31503743	      1.06204378	     10.56601021	      0.49822373	     -7.92021455	      0.73719589	    -16.64577448	      0.97590567	     23.91774049	     -5.56901590	      0.89103498	    -58.16722216	     -0.66204929	    -10.75109354	      4.73501980	     -5.56918843	      7.84263793	      3.19356524
      0.85016667	      1.14224479	     -4.45289505	     -0.41421103	     -0.27957000	      1.01878434	      0.31528022	      0.54648172	     10.50435691	      0.63204411	     -7.61973236	      0.87319901	    -16.39627341	      0.96170473	     24.17902714	     -5.54847575	      0.78455952	    -57.13938089	     -0.41473413	    -10.71960482	      4.65076072	     -5.65763016	      7.79682074	      3.34298758
      0.85433333	      1.15513418	     -4.41044486	     -0.58000858	     -0.27447098	      1.01891380	      0.31546523	      0.04977931	     10.42944493	      0.67641429	     -7.35056492	      1.03703800	    -15.95353083	      0.86174567	     24.42101142	     -5.51532119	      0.69397552	    -56.06439799	     -0.21722868	    -10.69829465	      4.19586536	     -5.74136678	      7.74832862	      3.63462703
      0.85850000	      1.16615527	     -4.36552362	     -0.75905826	     -0.26937120	      1.01901345	      0.31569122	     -0.46232056	     10.36218521	      0.85260871	     -7.05415753	      1.16341058	    -15.80425725	      0.85320800	     24.63645031	     -5.48949608	      0.58459837	    -54.93629227	     -0.02061012	    -10.66505053	      4.13467616	     -5.82666585	      7.70884562	      3.65765744
      0.86266667	      1.19301386	     -4.33679974	     -0.92056773	     -0.26426144	      1.01908267	      0.31589103	     -0.99417099	     10.30774197	      0.99749366	     -6.74444031	      1.28322012	    -15.60819822	      0.84362474	     24.82001951	     -5.47566835	      0.48771810	    -53.76966080	      0.13556489	    -10.63336393	      4.06420079	     -5.92550329	      7.67874118	      3.76393578
      0.86683333	      1.22988299	     -4.32417936	     -1.05441793	     -0.25913037	      1.01910957	      0.31604272	     -1.53699708	     10.26590537	      1.08688596	     -6.42986089	      1.41552841	    -15.38018967	      0.82353548	     24.98133944	     -5.46819204	      0.41340856	    -52.57145425	      0.26108483	    -10.61448131	      3.94068158	     -6.03502174	      7.66684275	      3.94083445
      0.87100000	      1.19633222	     -4.28218911	     -1.22309781	     -0.25400965	      1.01903403	      0.31621416	     -1.98608676	     10.19176679	      1.24751377	     -6.15438870	      1.54112305	    -15.20065496	      0.81716974	     25.18202467	     -5.43651824	      0.30829664	    -51.30850600	      0.35928344	    -10.58931356	      3.87770673	     -6.07241042	      7.63462581	      4.00043571
      0.87516667	      1.24244664	     -4.25946836	     -1.35823143	     -0.24884173	      1.01901558	      0.31636604	     -2.53280527	     10.13492510	      1.34135741	     -5.85366884	      1.67317592	    -14.99121808	      0.80478048	     25.27593525	     -5.42096478	      0.21274992	    -50.00185400	      0.42139026	    -10.60561458	      3.78021935	     -6.16586159	      7.60275503	      4.12932354
      0.87933333	      1.22235765	     -4.24701388	     -1.49890135	     -0.24371505	      1.01885128	      0.31650094	     -2.99127574	     10.09102862	      1.48593300	     -5.58419813	      1.79871126	    -14.81653769	      0.79817919	     25.42875934	     -5.40786611	      0.14209054	    -48.66568547	      0.47603570	    -10.59245892	      3.70964386	     -6.21271894	      7.59578215	      4.20335009
      0.88350000	      1.25439997	     -4.23260508	     -1.61071534	     -0.23852566	      1.01871935	      0.31659016	     -3.51661914	     10.03985477	      1.55505742	     -5.29059109	      1.93694902	    -14.62950497	      0.78332491	     25.50017675	     -5.38662737	      0.06362218	    -47.28325412	      0.48938644	    -10.64238632	      3.59044865	     -6.30045601	      7.58694301	      4.33172199
      0.88766667	      1.23604190	     -4.20751900	     -1.74754249	     -0.23335717	      1.01848984	      0.31670753	     -3.97162272	      9.97794393	      1.68777006	     -5.03111878	      2.07029679	    -14.48172339	      0.77566066	     25.59888338	     -5.36317406	     -0.03581337	    -45.85399974	      0.49476928	    -10.65516469	      3.50853181	     -6.34648587	      7.57133306	      4.38897818
      0.89183333	      1.23534409	     -4.19870554	     -1.86039213	     -0.22816623	      1.01822262	      0.31679739	     -4.44723247	      9.93415613	      1.79350034	     -4.76818772	      2.20755281	    -14.34195139	      0.76684767	     25.66223481	     -5.34639542	     -0.11389694	    -44.39286746	      0.47368382	    -10.70527022	      3.41846353	     -6.39746451	      7.56642213	      4.46601607
      0.89600000	      1.23670876	     -4.18988748	     -1.96813252	     -0.22295881	      1.01791866	      0.31686986	     -4.92166585	      9.88939101	      1.89575704	     -4.51161460	      2.34917360	    -14.21951943	      0.75856214	     25.69957136	     -5.32725221	     -0.19710854	    -42.89124322	      0.43647591	    -10.76238366	      3.33175139	     -6.44938262	      7.56228894	      4.53289680
      0.90016667	      1.22385732	     -4.19594300	     -2.06781997	     -0.21773931	      1.01755187	      0.31692695	     -5.37545467	      9.86109649	      1.99225952	     -4.26542067	      2.48940115	    -14.10998945	      0.74894586	     25.73381959	     -5.32005300	     -0.27254970	    -41.35870013	      0.38255648	    -10.83030403	      3.23971726	     -6.48325857	      7.57876000	      4.59999083
      0.90433333	      1.21411654	     -4.19835133	     -2.16352822	     -0.21250488	      1.01713850	      0.31698081	     -5.82824881	      9.82912850	      2.08801682	     -4.02999767	      2.63786389	    -14.01302989	      0.73932828	     25.74273580	     -5.30892606	     -0.35757802	    -39.78972361	      0.31372424	    -10.90245301	      3.14881186	     -6.51650683	      7.58615067	      4.65860197
